<svg width="640" height="480" viewBox="0 0 640 480" fill="none" xmlns="http://www.w3.org/2000/svg">
  <defs>
    <linearGradient id="halo" x1="120" y1="60" x2="520" y2="420" gradientUnits="userSpaceOnUse">
      <stop offset="0" stop-color="#FF7EA5" stop-opacity="0.35" />
      <stop offset="0.5" stop-color="#66D1FF" stop-opacity="0.4" />
      <stop offset="1" stop-color="#2ED8C3" stop-opacity="0.45" />
    </linearGradient>
  </defs>
  <rect width="640" height="480" rx="28" fill="#070B16" />
  <rect x="60" y="40" width="520" height="400" rx="26" fill="#0E1932" stroke="#22355A" stroke-width="2" />
  <rect x="60" y="40" width="520" height="400" rx="26" fill="url(#halo)" opacity="0.55" />
  <g transform="translate(120 100)">
    <rect x="0" y="0" width="160" height="200" rx="36" fill="#162545" />
    <rect x="40" y="24" width="80" height="80" rx="24" fill="#FFB14F" />
    <path d="M40 144C40 122 58 104 80 104H120C142 104 160 122 160 144V200H40V144Z" fill="#66D1FF" />
  </g>
  <g transform="translate(280 140)">
    <rect x="0" y="0" width="260" height="160" rx="28" fill="#131F3C" />
    <rect x="20" y="24" width="220" height="24" rx="12" fill="#66D1FF" opacity="0.85" />
    <rect x="20" y="64" width="180" height="18" rx="9" fill="#FFB14F" opacity="0.8" />
    <rect x="20" y="96" width="140" height="18" rx="9" fill="#2ED8C3" opacity="0.8" />
    <rect x="20" y="128" width="200" height="14" rx="7" fill="#FF7EA5" opacity="0.7" />
  </g>
  <g transform="translate(220 320)">
    <rect x="0" y="0" width="300" height="90" rx="22" fill="#101D37" stroke="#2C416C" stroke-width="2" />
    <rect x="20" y="20" width="160" height="24" rx="12" fill="#2ED8C3" />
    <rect x="200" y="20" width="80" height="24" rx="12" fill="#FF7EA5" />
    <rect x="200" y="52" width="60" height="20" rx="10" fill="#66D1FF" />
  </g>
  <circle cx="180" cy="360" r="36" fill="#FF7EA5" />
  <path d="M180 360L210 340" stroke="#2ED8C3" stroke-width="6" stroke-linecap="round" />
  <path d="M180 360L210 380" stroke="#FFB14F" stroke-width="6" stroke-linecap="round" />
</svg>
